<svg width="42" height="42" viewBox="0 0 42 42" fill="none" xmlns="http://www.w3.org/2000/svg">
<path d="M36.0938 38.0625V1.3125H5.90625V38.0625H1.3125V40.6875H40.6875V38.0625H36.0938ZM33.4688 38.0625H22.3125V32.8125H19.6875V38.0625H8.53125V3.9375H33.4688V38.0625Z" fill="white"/>
<path d="M13.125 24.9375H15.75V27.5625H13.125V24.9375ZM19.6875 24.9375H22.3125V27.5625H19.6875V24.9375ZM26.25 24.9375H28.875V27.5625H26.25V24.9375ZM13.125 17.0625H15.75V19.6875H13.125V17.0625ZM19.6875 17.0625H22.3125V19.6875H19.6875V17.0625ZM26.25 17.0625H28.875V19.6875H26.25V17.0625ZM13.125 9.1875H15.75V11.8125H13.125V9.1875ZM19.6875 9.1875H22.3125V11.8125H19.6875V9.1875ZM26.25 9.1875H28.875V11.8125H26.25V9.1875Z" fill="white"/>
</svg>
