<svg width="80" height="80" viewBox="0 0 80 80" fill="none" xmlns="http://www.w3.org/2000/svg">
<path d="M19.5261 27.0605C19.7881 26.9277 20.0598 26.8751 20.3098 26.8751H45.3152C45.5653 26.8751 45.8369 26.9277 46.0989 27.0605C47.4868 27.7642 49.7319 29.7031 50.8369 33.0452C51.0536 33.7007 50.6979 34.4077 50.0425 34.6244C49.3871 34.8412 48.68 34.4855 48.4633 33.83C47.6304 31.3111 46.0101 29.8875 45.1244 29.3751H20.5006C19.4174 30.0011 17.267 31.9686 16.7489 35.6046C16.7055 35.9088 16.5561 36.1717 16.3433 36.3613C17.4604 37.5005 18.7849 37.9817 19.4996 38.0907H29.8176C30.5079 38.0907 31.0676 38.6503 31.0676 39.3407C31.0676 40.0311 30.5079 40.5907 29.8176 40.5907H19.3359L19.2584 40.581C17.6559 40.3801 14.4581 39.1106 12.85 35.635H8.22669C7.48312 35.635 6.875 36.2401 6.875 36.9932V37.103C6.875 37.7759 7.36431 38.3442 8.02163 38.4456L11.7441 39.0197C13.0511 39.2212 13.6788 40.7284 12.9159 41.7992L11.5811 43.6726C11.2278 44.1684 11.0377 44.7629 11.0377 45.3729V51.5996C11.0377 53.217 12.3447 54.5227 13.9504 54.5227H22.9426C23.6329 54.5227 24.1926 55.0824 24.1926 55.7727C24.1926 56.4631 23.6329 57.0227 22.9426 57.0227H13.9504C13.3889 57.0227 12.8475 56.9372 12.3385 56.7783V59.1635C12.3385 59.6286 12.7137 60.0001 13.1699 60.0001H19.9342C20.3904 60.0001 20.7656 59.5931 20.7656 58.9027C20.7656 58.2123 21.3252 57.6527 22.0156 57.6527C22.7059 57.6527 23.2656 58.2123 23.2656 58.9027C23.2656 61.0069 21.7771 62.5001 19.9342 62.5001H13.1699C11.327 62.5001 9.8385 61.0033 9.8385 59.1635L9.84406 55.1329C9.02956 54.1834 8.53769 52.9485 8.53769 51.5996V45.3729C8.53769 44.2434 8.88969 43.1417 9.545 42.222L10.1946 41.3102L7.6405 40.9163C5.75948 40.6262 4.375 39.0048 4.375 37.103V36.9932C4.375 34.8654 6.09647 33.135 8.22669 33.135H13.3221C13.8282 33.135 14.2768 33.3464 14.5977 33.6769C15.6143 29.9406 18.0617 27.803 19.5261 27.0605Z" fill="#B7263E"/>
<path d="M12.8551 43.1053C13.3689 42.6442 14.1592 42.6868 14.6204 43.2005L16.5894 45.3938H18.6304C19.3207 45.3938 19.8804 45.9535 19.8804 46.6438C19.8804 47.3341 19.3207 47.8938 18.6304 47.8938H16.2634C15.7604 47.8938 15.2819 47.6797 14.9465 47.3061L12.76 44.8706C12.2989 44.3568 12.3414 43.5665 12.8551 43.1053Z" fill="#B7263E"/>
<path d="M29.1051 53.7303C29.6189 53.2692 30.4092 53.3118 30.8704 53.8255L32.8394 56.0188H38.0054C38.6958 56.0188 39.2554 56.5785 39.2554 57.2688C39.2554 57.9591 38.6958 58.5188 38.0054 58.5188H32.5134C32.0104 58.5188 31.5319 58.3047 31.1965 57.9311L29.01 55.4956C28.5489 54.9818 28.5914 54.1915 29.1051 53.7303Z" fill="#B7263E"/>
<path d="M69.02 53.7303C69.5338 54.1915 69.5763 54.9818 69.115 55.4956L66.9288 57.9311C66.5931 58.3047 66.1144 58.5188 65.6119 58.5188H60.1196C59.4293 58.5188 58.8696 57.9591 58.8696 57.2688C58.8696 56.5785 59.4293 56.0188 60.1196 56.0188H65.2856L67.2544 53.8255C67.7156 53.3118 68.5063 53.2692 69.02 53.7303Z" fill="#B7263E"/>
<path d="M37.2758 61.9636C37.2758 61.2733 37.8354 60.7136 38.5258 60.7136H59.5993C60.2896 60.7136 60.8493 61.2733 60.8493 61.9636C60.8493 62.6537 60.2896 63.2137 59.5993 63.2137H38.5258C37.8354 63.2137 37.2758 62.6537 37.2758 61.9636Z" fill="#B7263E"/>
<path fill-rule="evenodd" clip-rule="evenodd" d="M35.7761 37.6855C36.0381 37.5527 36.3098 37.5001 36.5598 37.5001H61.5652C61.8153 37.5001 62.0869 37.5527 62.3489 37.6855C63.8131 38.428 66.2606 40.5656 67.2775 44.3019C67.5981 43.9714 68.0469 43.76 68.5531 43.76H73.6481C75.7787 43.76 77.5 45.4904 77.5 47.6182V47.728C77.5 49.6298 76.1156 51.2512 74.2344 51.5413L71.6806 51.9352L72.33 52.847C72.985 53.7667 73.3375 54.8684 73.3375 55.9979V62.2246C73.3375 63.5732 72.8456 64.8082 72.0312 65.7576L72.0363 69.7888C72.0363 71.6282 70.5481 73.1251 68.705 73.1251H61.9408C60.0979 73.1251 58.6094 71.5626 58.6094 69.5276C58.6094 68.8376 59.1691 68.2776 59.8594 68.2776C60.5498 68.2776 61.1094 68.8376 61.1094 69.5276C61.1094 70.2182 61.4846 70.6251 61.9408 70.6251H68.705C69.1613 70.6251 69.5363 70.2538 69.5363 69.7888V67.4032C69.0275 67.5619 68.4863 67.6476 67.9244 67.6476H30.2004C29.6389 67.6476 29.0975 67.5619 28.5885 67.4032V69.7888C28.5885 70.2538 28.9637 70.6251 29.4199 70.6251H36.1842C36.6404 70.6251 37.0156 70.2182 37.0156 69.5276C37.0156 68.8376 37.5752 68.2776 38.2656 68.2776C38.9559 68.2776 39.5156 68.8376 39.5156 69.5276C39.5156 71.8751 38.0271 73.1251 36.1842 73.1251H29.4199C27.577 73.1251 26.0885 71.6282 26.0885 69.7888L26.0941 65.7576C25.2796 64.8082 24.7877 63.5732 24.7877 62.2246V55.9979C24.7877 54.8684 25.1397 53.7667 25.795 52.847L26.4446 51.9352L23.8905 51.5413C22.0095 51.2512 20.625 49.6298 20.625 47.728V47.6182C20.625 45.4904 22.3465 43.76 24.4767 43.76H29.5721C30.0782 43.76 30.5268 43.9714 30.8477 44.3019C31.8643 40.5656 34.3117 38.428 35.7761 37.6855ZM32.5933 46.9863C33.7104 48.1255 35.0349 48.6067 35.7496 48.7157H62.3754C63.09 48.6067 64.4144 48.1255 65.5319 46.9863C65.3187 46.7967 65.1694 46.5338 65.1263 46.2296C64.6081 42.5936 62.4576 40.6261 61.3744 40.0001H36.7506C35.6674 40.6261 33.517 42.5936 32.9989 46.2296C32.9555 46.5338 32.8061 46.7967 32.5933 46.9863ZM24.4767 46.26C23.7331 46.26 23.125 46.8651 23.125 47.6182V47.728C23.125 48.4009 23.6143 48.9692 24.2716 49.0706L27.9941 49.6447C29.3011 49.8462 29.9288 51.3534 29.1659 52.4242L27.8311 54.2976C27.4778 54.7934 27.2877 55.3879 27.2877 55.9979V62.2246C27.2877 63.8419 28.5947 65.1476 30.2004 65.1476H67.9244C69.53 65.1476 70.8375 63.8419 70.8375 62.2246V55.9979C70.8375 55.3879 70.6469 54.7934 70.2938 54.2976L68.9594 52.4242C68.1963 51.3534 68.8237 49.8462 70.1306 49.6447L73.8531 49.0706C74.5106 48.9692 75 48.4009 75 47.728V47.6182C75 46.8651 74.3919 46.26 73.6481 46.26H69.025C67.4169 49.7356 64.2194 51.0051 62.6162 51.206L62.5394 51.2157H35.5859L35.5084 51.206C33.9059 51.0051 30.7081 49.7356 29.1 46.26H24.4767Z" fill="#B7263E"/>
</svg>
