<svg width="80" height="80" viewBox="0 0 80 80" fill="none" xmlns="http://www.w3.org/2000/svg">
<path d="M66.125 38.135C65.0377 38.1385 63.9556 38.2861 62.907 38.574L62.293 36.837C64.368 36.474 68.38 35.4 69.961 32.377C71.097 30.206 70.755 27.541 68.907 24.396C68.686 24.074 63.435 16.518 58.236 17.156C58.0735 17.1763 57.9184 17.2363 57.7844 17.3306C57.6505 17.4248 57.5417 17.5506 57.4678 17.6968C57.3938 17.8429 57.3569 18.005 57.3602 18.1688C57.3636 18.3326 57.4071 18.493 57.487 18.636C58.715 20.836 60.624 25.685 58.867 27.06L57.443 23C57.3619 22.7691 57.199 22.5759 56.985 22.457L53.779 20.678C53.664 20.6096 53.5364 20.565 53.4038 20.5468C53.2712 20.5286 53.1363 20.5372 53.007 20.5721C52.8778 20.607 52.7569 20.6674 52.6515 20.7499C52.5461 20.8324 52.4583 20.9352 52.3934 21.0523C52.3284 21.1693 52.2877 21.2982 52.2734 21.4313C52.2592 21.5643 52.2719 21.6989 52.3106 21.827C52.3494 21.9552 52.4135 22.0742 52.4991 22.1771C52.5847 22.28 52.6901 22.3646 52.809 22.426L55.683 24.026L57.036 27.884C56.2265 28.042 55.3873 27.9193 54.657 27.536C53.979 26.558 51.168 23.136 45.108 23.387L43.408 23.453C41.3663 23.508 39.3744 24.096 37.6302 25.1587C35.886 26.2214 34.4501 27.7218 33.465 29.511C33.3777 29.675 33.2973 29.837 33.224 29.997L25.269 28.659L23.769 22.808C23.7243 22.633 23.633 22.4733 23.5048 22.346C23.3766 22.2187 23.2163 22.1285 23.041 22.085L11.652 19.255C11.5046 19.2193 11.351 19.2173 11.2027 19.2489C11.0543 19.2806 10.915 19.3452 10.795 19.438C10.6754 19.5316 10.5786 19.6512 10.5121 19.7877C10.4455 19.9242 10.411 20.0741 10.411 20.226V26.208C10.411 26.3583 10.445 26.5067 10.5102 26.6421C10.5755 26.7774 10.6704 26.8964 10.788 26.99L30.748 42.873L29.2 45.816H25.875C25.1821 42.9656 23.4944 40.4561 21.1157 38.7394C18.737 37.0227 15.8236 36.2115 12.9 36.452C9.88886 36.717 7.07574 38.0641 4.98158 40.244C2.88742 42.4238 1.6541 45.2887 1.51 48.308C1.44485 49.9725 1.71644 51.6329 2.3085 53.1899C2.90055 54.7468 3.80089 56.1682 4.95553 57.3688C6.11018 58.5693 7.49535 59.5244 9.02802 60.1768C10.5607 60.8291 12.2093 61.1652 13.875 61.165C16.5867 61.1582 19.2217 60.2641 21.3775 58.6191C23.5333 56.9741 25.0915 54.6687 25.814 52.055H29.142L32.421 57.239C32.5111 57.3817 32.6358 57.4992 32.7836 57.5807C32.9313 57.6622 33.0973 57.7049 33.266 57.705H52.211C52.3699 57.705 52.5265 57.6671 52.6678 57.5946C52.8091 57.522 52.9311 57.4168 53.0237 57.2877C53.1162 57.1585 53.1767 57.0092 53.2001 56.8521C53.2234 56.6949 53.209 56.5345 53.158 56.384C53.133 56.31 50.682 48.893 53.618 43.065C55.0388 40.3559 57.4426 38.2931 60.336 37.3L61.025 39.249C58.2513 40.5137 56.0432 42.7595 54.8257 45.5543C53.6083 48.3491 53.4674 51.4954 54.4301 54.3878C55.3929 57.2802 57.3914 59.7144 60.041 61.222C62.6906 62.7295 65.8041 63.204 68.7824 62.554C71.7608 61.904 74.3935 60.1755 76.1741 57.7011C77.9547 55.2267 78.7573 52.1813 78.4275 49.1507C78.0977 46.1202 76.6587 43.3186 74.3876 41.2852C72.1164 39.2518 69.1735 38.1301 66.125 38.136V38.135ZM13.875 59.165C12.4784 59.1649 11.0962 58.8828 9.81124 58.3357C8.52628 57.7885 7.36499 56.9876 6.39696 55.9809C5.42893 54.9743 4.6741 53.7825 4.17768 52.4771C3.68127 51.1717 3.45349 49.7796 3.508 48.384C3.62867 45.8528 4.66264 43.4511 6.41838 41.6239C8.17412 39.7966 10.5326 38.6676 13.057 38.446C15.4226 38.2542 17.7823 38.8819 19.7399 40.2239C21.6975 41.5658 23.1339 43.5404 23.808 45.816H20.848C20.2311 44.4367 19.1972 43.2857 17.8918 42.5249C16.5863 41.7641 15.0752 41.4319 13.571 41.575C11.8012 41.758 10.1589 42.58 8.95164 43.887C7.74441 45.194 7.05516 46.8963 7.013 48.675C6.97993 50.3165 7.50638 51.9204 8.5058 53.223C9.50522 54.5256 10.9181 55.4494 12.5122 55.8424C14.1063 56.2355 15.7867 56.0744 17.2771 55.3857C18.7675 54.697 19.9792 53.5217 20.713 52.053H23.728C23.0366 54.1205 21.7139 55.919 19.9462 57.1949C18.1786 58.4708 16.0551 59.1599 13.875 59.165ZM17.297 52.055H18.374C17.6924 52.9144 16.7588 53.5388 15.7041 53.8403C14.6495 54.1418 13.5269 54.1053 12.4941 53.736C11.4613 53.3667 10.5701 52.6832 9.94569 51.7813C9.32132 50.8795 8.99515 49.8047 9.013 48.708C9.04238 47.4208 9.54021 46.1885 10.4132 45.242C11.2862 44.2956 12.4743 43.7001 13.755 43.567C14.686 43.4763 15.6243 43.6371 16.472 44.0327C17.3196 44.4283 18.0455 45.0442 18.574 45.816H17.3C16.092 45.816 12.112 46.789 12.112 48.936C12.112 51.083 16.089 52.055 17.3 52.055H17.297ZM51.826 42.178C49.275 47.251 50.255 53.124 50.89 55.705H33.816L30.537 50.521C30.4469 50.3784 30.3222 50.2608 30.1744 50.1794C30.0267 50.0979 29.8607 50.0551 29.692 50.055H17.3C16.1738 49.9733 15.091 49.5865 14.168 48.936C15.0907 48.2848 16.1736 47.8976 17.3 47.816H29.8C29.9822 47.8161 30.1609 47.7663 30.3168 47.6722C30.4728 47.5781 30.6001 47.4432 30.685 47.282L32.9 43.072C33.0085 42.8661 33.0418 42.6288 32.9942 42.401C32.9466 42.1732 32.8209 41.9692 32.639 41.824L12.408 25.724V21.5L21.972 23.874L23.485 29.774C23.5327 29.9613 23.6336 30.1308 23.7756 30.262C23.9176 30.3931 24.0945 30.4803 24.285 30.513L33.675 32.092H33.694C40.054 33 43.958 34.963 45.294 37.926C45.6739 38.9406 45.8359 40.0237 45.7696 41.105C45.7033 42.1863 45.41 43.2415 44.909 44.202C44.1575 43.3648 43.1279 42.8287 42.0111 42.693C40.8943 42.5574 39.7663 42.8315 38.8362 43.4644C37.9062 44.0974 37.2374 45.0462 36.9538 46.1349C36.6703 47.2235 36.7913 48.3781 37.2944 49.3843C37.7975 50.3905 38.6485 51.1801 39.6896 51.6064C40.7307 52.0328 41.891 52.067 42.9554 51.7028C44.0198 51.3385 44.9159 50.6005 45.4775 49.6257C46.039 48.6509 46.2279 47.5055 46.009 46.402C46.838 45.013 48.866 40.972 47.115 37.102C45.577 33.702 41.601 31.429 35.286 30.322C36.1157 28.8742 37.3044 27.6646 38.7375 26.8099C40.1707 25.9551 41.7999 25.484 43.468 25.442L45.174 25.376C50.839 25.154 52.992 28.642 53.074 28.784C53.1604 28.9328 53.2837 29.0568 53.432 29.144C54.4325 29.7118 55.5755 29.9789 56.724 29.9132C57.8725 29.8476 58.9777 29.4521 59.907 28.774C62.917 26.846 61.227 21.918 60.034 19.289C62.982 20.146 66.12 23.889 67.203 25.464C68.639 27.912 68.966 29.924 68.173 31.442C66.563 34.529 60.899 35.008 60.842 35.013C60.7641 35.0185 60.6872 35.0336 60.613 35.058H60.601H60.59L60.58 35.065C58.7124 35.5898 56.9721 36.4917 55.4665 37.715C53.9608 38.9384 52.7219 40.4573 51.826 42.178ZM44.111 47.287C44.111 47.8123 43.9552 48.3258 43.6634 48.7626C43.3715 49.1994 42.9567 49.5398 42.4714 49.7408C41.9861 49.9419 41.4521 49.9945 40.9368 49.892C40.4216 49.7895 39.9484 49.5365 39.5769 49.1651C39.2055 48.7936 38.9525 48.3204 38.85 47.8052C38.7476 47.29 38.8002 46.7559 39.0012 46.2706C39.2022 45.7853 39.5426 45.3705 39.9794 45.0786C40.4162 44.7868 40.9297 44.631 41.455 44.631C42.1593 44.6315 42.8345 44.9115 43.3325 45.4095C43.8305 45.9075 44.1105 46.5828 44.111 47.287ZM66.125 60.887C64.0731 60.887 62.0673 60.2786 60.3612 59.1387C58.6551 57.9987 57.3253 56.3785 56.5399 54.4828C55.7546 52.5872 55.5491 50.5012 55.9492 48.4887C56.3494 46.4762 57.3373 44.6275 58.7881 43.1765C60.2388 41.7254 62.0873 40.7372 64.0997 40.3366C66.1121 39.9361 68.1981 40.1412 70.094 40.9262C71.9898 41.7111 73.6103 43.0406 74.7505 44.7465C75.8908 46.4524 76.4996 48.4581 76.5 50.51C76.4968 53.2607 75.4027 55.8977 73.4577 57.8427C71.5127 59.7877 68.8757 60.8818 66.125 60.885V60.887Z" fill="#B7263E"/>
<path d="M66.125 43.259C64.6908 43.259 63.2889 43.6843 62.0964 44.4811C60.904 45.2779 59.9746 46.4104 59.4258 47.7354C58.8771 49.0604 58.7335 50.5184 59.0134 51.925C59.2933 53.3316 59.9839 54.6236 60.9981 55.6376C62.0123 56.6517 63.3044 57.3422 64.711 57.6218C66.1176 57.9015 67.5756 57.7578 68.9005 57.2088C70.2255 56.6598 71.3578 55.7303 72.1545 54.5377C72.9511 53.3452 73.3762 51.9432 73.376 50.509C73.3739 48.5867 72.6092 46.7437 71.2498 45.3845C69.8904 44.0253 68.0473 43.2609 66.125 43.259ZM66.125 55.759C64.9771 55.7624 63.86 55.3884 62.9455 54.6947C62.031 54.0009 61.3699 53.0258 61.064 51.9194C60.758 50.8131 60.8241 49.6369 61.2522 48.5718C61.6803 47.5068 62.4465 46.6119 63.433 46.025L65.233 51.055C65.3296 51.2945 65.515 51.4874 65.7506 51.5932C65.9862 51.6991 66.2535 51.7097 66.4967 51.6229C66.7399 51.536 66.9401 51.3585 67.0553 51.1274C67.1706 50.8963 67.192 50.6295 67.115 50.383L65.315 45.34C65.5834 45.2914 65.8553 45.2639 66.128 45.258C66.8261 45.2444 67.5198 45.3701 68.1687 45.6278C68.8176 45.8856 69.4086 46.2701 69.9071 46.759C70.4056 47.2478 70.8016 47.8312 71.0719 48.4749C71.3422 49.1187 71.4815 49.8098 71.4815 50.508C71.4815 51.2062 71.3422 51.8974 71.0719 52.5412C70.8016 53.1849 70.4056 53.7683 69.9071 54.2571C69.4086 54.746 68.8176 55.1305 68.1687 55.3882C67.5198 55.6459 66.8261 55.7717 66.128 55.758L66.125 55.759Z" fill="#B7263E"/>
</svg>
