<svg width="80" height="80" viewBox="0 0 80 80" fill="none" xmlns="http://www.w3.org/2000/svg">
<path d="M7.96715 49.723H2.1875C1.65895 49.723 1.23047 50.1514 1.23047 50.68V67.8125C1.23047 68.2813 1.56994 68.6811 2.03246 68.7568C2.08469 68.7654 2.13664 68.7697 2.18818 68.7697C2.5926 68.7697 2.96133 68.5124 3.09436 68.1183L8.874 50.9858C8.97258 50.6938 8.92432 50.3722 8.74467 50.1218C8.56488 49.8713 8.27545 49.723 7.96715 49.723ZM3.14453 61.9817V51.637H6.63428L3.14453 61.9817ZM67.8125 49.723H62.0329C61.7246 49.723 61.4353 49.8714 61.2553 50.1218C61.0757 50.3722 61.0274 50.6939 61.126 50.9858L66.9056 68.1183C67.0387 68.5125 67.4073 68.7697 67.8118 68.7697C67.8632 68.7697 67.9153 68.7654 67.9675 68.7568C68.4301 68.6809 68.7695 68.2812 68.7695 67.8125V50.68C68.7695 50.1513 68.3411 49.723 67.8125 49.723ZM66.8555 61.9817L63.3657 51.637H66.8555V61.9817ZM55.2245 50.4041C55.1027 49.9997 54.7304 49.723 54.3081 49.723H51.6466L47.8287 39.6104C47.6211 39.0588 47.3041 38.5707 46.8865 38.159L40.0595 30.6013V26.8287L44.7712 31.566C45.4632 32.2618 46.3846 32.6464 47.3659 32.6493H47.3763C48.3536 32.6493 49.2732 32.27 49.9663 31.5805C50.6622 30.8886 51.0468 29.9671 51.0495 28.9859C51.0524 28.0045 50.6728 27.081 49.9877 26.3922L38.7558 14.8639C37.9107 13.9881 36.7263 13.4418 35.416 13.4418C34.253 13.4418 33.5743 13.8056 33.2846 13.961L33.2452 13.9821C33.2384 13.9856 33.2315 13.9893 33.2248 13.993L24.2231 19.0157C23.1371 19.5258 22.3676 20.5316 22.1612 21.7135L20.4855 31.2893C20.1365 33.2879 21.4787 35.1978 23.4772 35.5469C24.4457 35.7164 25.4215 35.4979 26.2257 34.9329C27.0298 34.3677 27.5658 33.5233 27.7348 32.5556L29.0992 24.7577L30.7727 23.8787V30.6772L19.1907 49.723H15.6919C15.2696 49.723 14.8973 49.9997 14.7755 50.4041L9.61775 67.5366C9.53053 67.8263 9.58562 68.1405 9.76609 68.3833C9.94656 68.6263 10.2315 68.7694 10.5342 68.7694H20.2755C20.7395 68.7694 21.1366 68.4366 21.2178 67.98L23.0776 57.5177C23.7908 57.1951 24.4184 56.6636 24.8559 55.9464L35.7658 38.0291L40.5398 43.164L44.8122 54.4802C45.1824 55.4634 45.8985 56.2159 46.7694 56.6562L48.7822 67.9801C48.8634 68.437 49.2604 68.7697 49.7245 68.7697H59.466C59.7687 68.7697 60.0536 68.6265 60.234 68.3836C60.4145 68.1408 60.4696 67.8266 60.3824 67.5369L55.2245 50.4041ZM49.1358 28.9804C49.1344 29.4504 48.9502 29.8916 48.6168 30.2232C48.2835 30.5546 47.8372 30.7319 47.3713 30.7351C46.9012 30.7337 46.4599 30.5495 46.1285 30.2162L40.0597 24.1143V18.9448L48.6238 27.7348C48.9552 28.0681 49.1369 28.5104 49.1358 28.9804ZM19.4737 66.8555H11.8218L16.4034 51.637H18.0269L17.9631 51.7422C17.4016 52.6627 17.2319 53.7469 17.4858 54.7948C17.7395 55.843 18.3863 56.7294 19.3069 57.291C19.8611 57.6291 20.4652 57.8158 21.0719 57.8657L19.4737 66.8555ZM23.2215 54.9503C22.9262 55.4344 22.4602 55.7744 21.9089 55.908C21.3578 56.0417 20.7877 55.9523 20.3036 55.657C19.8194 55.3617 19.4794 54.8955 19.3458 54.3442C19.2124 53.7931 19.3015 53.223 19.5975 52.7376L31.4281 33.2831C31.5153 33.3951 31.6116 33.5109 31.7204 33.6371C31.8222 33.7553 31.9385 33.8903 32.0707 34.0519C32.0837 34.0676 34.4117 36.5727 34.4117 36.5727L23.2215 54.9503ZM42.264 42.312C42.2201 42.1958 42.1541 42.0893 42.0696 41.9984L33.5331 32.8169C33.397 32.6509 33.2767 32.5112 33.1706 32.3879C32.6869 31.8263 32.6869 31.8263 32.6869 30.8418V22.2949C32.6869 21.9598 32.5116 21.649 32.2247 21.4758C31.9379 21.3026 31.5813 21.2918 31.2848 21.4476L27.7927 23.2818C27.53 23.4199 27.3461 23.6719 27.2949 23.9641L25.8493 32.2258C25.7681 32.6903 25.5109 33.0954 25.1251 33.3666C24.7394 33.6376 24.271 33.7425 23.8064 33.6612C22.8475 33.4938 22.2035 32.5773 22.371 31.6189L24.0466 22.0432C24.1469 21.4692 24.5238 20.982 25.0552 20.7397C25.0787 20.7289 25.1018 20.7173 25.1244 20.7047L34.1503 15.6685L34.1893 15.6479C34.3928 15.5385 34.7338 15.3557 35.4162 15.3557C36.1642 15.3557 36.8426 15.6585 37.336 16.1476L37.3352 16.1484L37.3825 16.1969C37.8539 16.6878 38.1456 17.3523 38.1456 18.085V30.9694C38.1456 31.2063 38.2337 31.4349 38.3925 31.6109L45.4862 39.4639C45.5004 39.4795 45.515 39.4948 45.5301 39.5094C45.7553 39.7279 45.926 39.9886 46.0379 40.2855L50.5775 52.3098C50.7771 52.8403 50.7582 53.4168 50.5243 53.9331C50.2904 54.4497 49.8693 54.8443 49.3385 55.0442C48.2429 55.457 47.0161 54.9012 46.6031 53.8047L42.264 42.312ZM50.5262 66.8555L48.7903 57.0896C49.1985 57.0697 49.6104 56.9872 50.0129 56.8356C51.0222 56.4557 51.8228 55.7052 52.2677 54.7229C52.7123 53.7413 52.7483 52.6456 52.3692 51.637H53.5966L58.1782 66.8555H50.5262ZM39.7696 50.6211C39.7384 50.1164 39.32 49.723 38.8145 49.723H31.1855C30.68 49.723 30.2615 50.1164 30.2304 50.6211L29.1741 67.7536C29.1579 68.0172 29.2511 68.2756 29.4321 68.4681C29.6131 68.6606 29.8653 68.7695 30.1294 68.7695H39.8709C40.135 68.7695 40.3871 68.6604 40.5681 68.4681C40.7492 68.2757 40.8424 68.0172 40.8261 67.7536L39.7696 50.6211ZM31.1471 66.8555L32.0853 51.637H37.9144L38.8529 66.8555H31.1471ZM36.8432 12.1447C39.8523 12.1447 42.3004 9.69664 42.3004 6.6876C42.3004 3.67855 39.8523 1.23047 36.8432 1.23047C33.8342 1.23047 31.3862 3.67855 31.3862 6.6876C31.3862 9.69664 33.8343 12.1447 36.8432 12.1447ZM36.8432 3.14453C38.797 3.14453 40.3863 4.73389 40.3863 6.6876C40.3863 8.64131 38.797 10.2307 36.8432 10.2307C34.8897 10.2307 33.3003 8.64131 33.3003 6.6876C33.3003 4.73389 34.8897 3.14453 36.8432 3.14453Z" fill="#B7263E"/>
</svg>
