<svg width="42" height="42" viewBox="0 0 42 42" fill="none" xmlns="http://www.w3.org/2000/svg">
<path d="M31.5 17.0625H28.875C28.874 16.0185 28.4588 15.0176 27.7206 14.2794C26.9824 13.5412 25.9815 13.126 24.9375 13.125V10.5C26.6773 10.5021 28.3453 11.1942 29.5756 12.4244C30.8058 13.6547 31.4979 15.3227 31.5 17.0625Z" fill="white"/>
<path d="M36.75 17.0625H34.125C34.1222 14.6267 33.1534 12.2914 31.431 10.569C29.7086 8.84664 27.3733 7.87778 24.9375 7.875V5.25C28.0693 5.25348 31.0718 6.49912 33.2864 8.71364C35.5009 10.9282 36.7465 13.9307 36.75 17.0625ZM34.125 38.0625H33.9019C8.11124 36.5794 4.44936 14.8181 3.93749 8.17688C3.85748 7.13573 4.19432 6.10545 4.8739 5.31264C5.55349 4.51983 6.52016 4.02943 7.5613 3.94931C7.66542 3.94144 7.76999 3.9375 7.87499 3.9375H14.7919C15.3176 3.93699 15.8314 4.09436 16.2666 4.38921C16.7019 4.68407 17.0386 5.10283 17.2331 5.59125L19.2281 10.5C19.4202 10.9772 19.4679 11.5002 19.3652 12.0042C19.2625 12.5083 19.014 12.971 18.6506 13.335L15.855 16.1569C16.2899 18.6392 17.4777 20.9278 19.2574 22.7122C21.0371 24.4966 23.3225 25.6904 25.8037 26.1319L28.6519 23.31C29.0213 22.9506 29.4884 22.7079 29.9949 22.6122C30.5014 22.5165 31.0249 22.572 31.5 22.7719L36.4481 24.7538C36.9292 24.9544 37.3396 25.2937 37.6271 25.7285C37.9146 26.1633 38.0662 26.6738 38.0625 27.195V34.125C38.0625 35.1693 37.6476 36.1708 36.9092 36.9092C36.1708 37.6477 35.1693 38.0625 34.125 38.0625ZM7.87499 6.5625C7.70263 6.56198 7.53185 6.59542 7.37241 6.6609C7.21298 6.72638 7.068 6.82263 6.94575 6.94414C6.82351 7.06565 6.7264 7.21005 6.65996 7.36909C6.59352 7.52813 6.55906 7.6987 6.55855 7.87106C6.55855 7.90781 6.55986 7.94413 6.56249 7.98C7.16624 15.75 11.0381 34.125 34.0462 35.4375C34.3936 35.4583 34.7351 35.3403 34.9955 35.1094C35.2559 34.8786 35.4139 34.5538 35.4349 34.2064L35.4375 34.125V27.195L30.4894 25.2131L26.7225 28.9537L26.0925 28.875C14.6737 27.4444 13.125 16.0256 13.125 15.9075L13.0462 15.2775L16.7737 11.5106L14.805 6.5625H7.87499Z" fill="white"/>
</svg>
