<svg width="60" height="80" viewBox="0 0 60 80" fill="none" xmlns="http://www.w3.org/2000/svg">
<path d="M52.2656 50.6249V22.2655C52.2656 16.3415 49.9431 10.7566 45.726 6.53951C41.509 2.32241 35.9241 0 30 0C25.8062 0 21.7121 1.18687 18.1603 3.43217C17.6132 3.77811 17.4501 4.50197 17.7959 5.049C18.1419 5.59592 18.8657 5.75939 19.4128 5.41334C22.5892 3.40522 26.2503 2.34374 30 2.34374C40.9849 2.34374 49.9218 11.2807 49.9218 22.2655V50.6249H10.0782V22.2655C10.0782 18.5151 11.1397 14.854 13.1478 11.6782C13.4936 11.1311 13.3307 10.4073 12.7837 10.0613C12.2363 9.71527 11.5127 9.87852 11.1669 10.4254C8.92135 13.9769 7.73448 18.0711 7.73448 22.2655V50.6249C5.1498 50.6249 3.047 52.7277 3.047 55.3124V58.8281C3.047 59.4752 3.57176 60 4.21887 60H55.7812C56.4283 60 56.953 59.4752 56.953 58.8281V55.3124C56.953 52.7277 54.8502 50.6249 52.2656 50.6249ZM54.6093 57.6563H5.39074V55.3124C5.39074 54.0201 6.44214 52.9687 7.73448 52.9687H52.2656C53.5579 52.9687 54.6093 54.0201 54.6093 55.3124V57.6563Z" fill="#B7263E"/>
<path d="M19.4532 42.4219V47.1094C19.4532 47.7565 19.978 48.2812 20.6251 48.2812H39.3751C40.0222 48.2812 40.5469 47.7565 40.5469 47.1094V42.4219C40.5469 41.7748 40.0222 41.25 39.3751 41.25H20.6251C19.978 41.25 19.4532 41.7748 19.4532 42.4219ZM21.7969 43.5938H38.2032V45.9375H21.7969V43.5938Z" fill="#B7263E"/>
<path d="M27.6567 37.7343C27.6567 38.3814 28.1815 38.9061 28.8286 38.9061H35.8594C36.5065 38.9061 37.0313 38.3814 37.0313 37.7343C37.0313 37.0871 36.5065 36.5624 35.8594 36.5624H28.8286C28.1814 36.5624 27.6567 37.0871 27.6567 37.7343Z" fill="#B7263E"/>
<path d="M25.3135 37.7343C25.3135 37.0871 24.7887 36.5624 24.1416 36.5624H24.1406C23.4935 36.5624 22.9692 37.0871 22.9692 37.7343C22.9692 38.3814 23.4944 38.9061 24.1416 38.9061C24.7888 38.9061 25.3135 38.3814 25.3135 37.7343Z" fill="#B7263E"/>
<path d="M15.0844 8.52172C15.3846 8.52172 15.6847 8.40723 15.9135 8.17836C16.3712 7.72075 16.3712 6.97872 15.9135 6.52098C15.4558 6.06348 14.714 6.06348 14.2562 6.52098L14.2556 6.52157C13.798 6.97918 13.7983 7.72086 14.2559 8.1786C14.4848 8.40735 14.7846 8.52172 15.0844 8.52172Z" fill="#B7263E"/>
<path d="M26.4088 21.9786C26.4088 19.7379 24.5858 17.9148 22.345 17.9148H19.4531C18.806 17.9148 18.2812 18.4396 18.2812 19.0867V28.8279C18.2812 29.475 18.806 29.9998 19.4531 29.9998C20.1002 29.9998 20.6249 29.475 20.6249 28.8279V26.0423H21.6685L23.615 29.4138C23.8321 29.7898 24.2259 30 24.631 30C24.8297 30 25.0313 29.9492 25.2158 29.8427C25.7763 29.5191 25.9683 28.8025 25.6447 28.2419L24.1344 25.6261C25.4804 24.9632 26.4088 23.5775 26.4088 21.9786ZM20.6251 20.2585H22.3451C23.2937 20.2585 24.0652 21.0301 24.0652 21.9786C24.0652 22.9271 23.2937 23.6987 22.3451 23.6987H20.6251V20.2585Z" fill="#B7263E"/>
<path d="M30.0001 29.9998C30.6472 29.9998 31.172 29.475 31.172 28.8279V19.0867C31.172 18.4396 30.6472 17.9148 30.0001 17.9148C29.353 17.9148 28.8282 18.4396 28.8282 19.0867V28.8279C28.8282 29.4751 29.3529 29.9998 30.0001 29.9998Z" fill="#B7263E"/>
<path d="M37.655 17.9148H34.7631C34.116 17.9148 33.5912 18.4396 33.5912 19.0867V28.8279C33.5912 29.475 34.116 29.9998 34.7631 29.9998C35.4102 29.9998 35.9349 29.475 35.9349 28.8279V26.0423H37.655C39.8958 26.0423 41.7188 24.2192 41.7188 21.9785C41.7188 19.7378 39.8958 17.9148 37.655 17.9148ZM37.655 23.6987H35.9349V20.2587H37.655C38.6035 20.2587 39.3751 21.0302 39.3751 21.9787C39.3751 22.9273 38.6035 23.6987 37.655 23.6987Z" fill="#B7263E"/>
<path d="M40.546 27.6558C39.8989 27.6558 39.3746 28.1805 39.3746 28.8276C39.3746 29.4747 39.8997 29.9995 40.547 29.9995C41.1942 29.9995 41.7188 29.4747 41.7188 28.8276C41.7188 28.1805 41.1941 27.6558 40.547 27.6558H40.546Z" fill="#B7263E"/>
</svg>
