<svg width="80" height="80" viewBox="0 0 80 80" fill="none" xmlns="http://www.w3.org/2000/svg">
<g clip-path="url(#clip0_112_24)">
<path d="M79.8994 38.0572C79.74 37.2494 79.3775 36.4855 78.8494 35.8464C70.1966 25.3949 72.2098 27.8269 68.9484 23.8863C67.9984 22.738 66.5986 22.0802 65.1081 22.0802H62.688C62.0411 22.0802 61.5163 22.6052 61.5163 23.2519C61.5163 23.8988 62.0413 24.4236 62.688 24.4236H65.1081C65.8972 24.4236 66.6392 24.772 67.1423 25.3798L68.0767 26.508H62.4098C60.7428 26.508 59.3866 27.925 59.3866 29.6688V36.2948C59.3866 38.0384 60.7427 39.4556 62.4098 39.4556H77.6509V56.8373C77.6509 57.7436 76.9134 58.4809 76.0073 58.4809H75.1605C74.7434 55.8342 73.0877 53.5653 70.7827 52.3361C65.6508 49.5998 59.3317 52.7602 58.435 58.4809C56.9225 58.4809 56.7178 58.4809 54.9228 58.4809V45.1834V45.1741V25.0611C54.9228 24.7095 55.2087 24.4236 55.5603 24.4236H58.0008C58.6492 24.4236 59.1727 23.8986 59.1727 23.2519C59.1727 22.605 58.6492 22.0802 58.0008 22.0802H55.5603C55.3416 22.0802 55.1275 22.1036 54.9228 22.1489V14.4619C54.9228 12.9542 53.6962 11.7277 52.1886 11.7277H13.9897C13.3412 11.7277 12.818 12.2511 12.818 12.8994C12.818 13.5463 13.3414 14.0711 13.9897 14.0711H52.1888C52.4044 14.0711 52.5794 14.2461 52.5794 14.4617V44.0019H2.34359V14.4619C2.34359 14.2463 2.51859 14.0713 2.73422 14.0713H9.3025C9.94938 14.0713 10.4742 13.5463 10.4742 12.8995C10.4742 12.2511 9.94922 11.7278 9.3025 11.7278H2.73422C1.22641 11.7277 0 12.9542 0 14.4619V54.9998C0 58.2122 2.61234 60.8245 5.82469 60.8245H11.7148C12.2334 65.1161 15.8811 68.2725 20.1048 68.2725C24.4225 68.2725 28.0138 65.0527 28.5261 60.8245H37.663C38.3114 60.8245 38.8347 60.3011 38.8347 59.6527C38.8347 59.0058 38.3112 58.4809 37.663 58.4809H28.4808C26.9945 49.0502 13.2458 48.9742 11.7553 58.4809H5.82469C3.90609 58.4809 2.34359 56.9202 2.34359 54.9998V54.8998H5.25594C6.11688 54.8998 6.92609 54.5639 7.53547 53.9561C9.55484 51.9316 8.11984 48.4533 5.25594 48.4533H2.34359V46.355H52.5792V58.4808H42.3502C41.7033 58.4808 41.1783 59.0058 41.1783 59.6525C41.1783 60.3009 41.7033 60.8244 42.3502 60.8244H58.3944C58.7241 63.5523 60.3552 65.9663 62.8144 67.277C64.08 67.952 65.4423 68.2723 66.7844 68.2723C71.1098 68.2723 74.695 65.0439 75.2056 60.8244H76.0072C78.2055 60.8244 79.9944 59.0355 79.9944 56.8372C79.9947 37.4234 80.0341 38.738 79.8994 38.0572ZM62.4098 37.1119C62.0348 37.1119 61.7302 36.7463 61.7302 36.2947V29.6686C61.7302 29.217 62.0348 28.8514 62.4098 28.8514H70.0156L76.8542 37.1117H62.4098V37.1119ZM26.0952 58.4808C26.2614 59.2106 26.2452 59.8072 26.2452 59.8072C26.2452 62.4603 24.5228 64.8664 21.9033 65.6645C17.9677 66.8586 13.9959 63.9156 13.9959 59.8041C13.9698 52.3652 24.6798 51.5353 26.0952 58.4808ZM5.25594 50.7969C6.03688 50.7969 6.42969 51.7466 5.87781 52.2983C5.54094 52.6352 5.49078 52.5561 2.34375 52.5561V50.7969H5.25594ZM72.9248 59.8072C72.9248 62.3875 71.2684 64.8464 68.583 65.6645C63.3466 67.2531 58.8497 61.6956 61.3959 56.9261C64.3592 51.3614 72.9248 53.4108 72.9248 59.8056V59.8072Z" fill="#B7263E"/>
<path d="M20.1189 64.5054C23.2909 64.5054 25.5045 61.4333 24.6264 58.4808C23.307 53.9977 16.9319 53.9991 15.613 58.4808C14.7284 61.4552 16.9688 64.5054 20.1189 64.5054ZM18.1738 58.4808C19.1078 57.109 21.1277 57.1083 22.0656 58.4808C23.1383 60.054 21.9914 62.1618 20.1189 62.1618C18.2381 62.1618 17.1081 60.0438 18.1738 58.4808Z" fill="#B7263E"/>
<path d="M62.2927 58.4808C61.4145 61.4336 63.6283 64.5054 66.8002 64.5054C69.4006 64.5054 71.4983 62.3857 71.4983 59.8072C71.4983 54.3577 63.8036 53.3471 62.2927 58.4808ZM68.9219 60.8244C68.5422 61.615 67.7345 62.1618 66.8002 62.1618C64.9175 62.1618 63.7878 60.0435 64.8534 58.4808C65.2784 57.8589 65.9923 57.4511 66.8002 57.4511C68.542 57.4511 69.672 59.2852 68.9219 60.8244Z" fill="#B7263E"/>
<path d="M64.5741 43.7548C65.2212 43.7548 65.7458 43.2302 65.7458 42.583C65.7458 41.9358 65.2211 41.4113 64.5741 41.4113H60.69C60.0428 41.4113 59.5183 41.9359 59.5183 42.583C59.5183 43.2302 60.043 43.7548 60.69 43.7548H64.5741Z" fill="#B7263E"/>
</g>
<defs>
<clipPath id="clip0_112_24">
<rect width="80" height="80" fill="white"/>
</clipPath>
</defs>
</svg>
